<svg width="400" height="400" viewBox="0 0 400 400" xmlns="http://www.w3.org/2000/svg">
  <!-- 배경 원 -->
  <circle cx="200" cy="200" r="195" fill="#185FA5"/>

  <!-- 몸통 -->
  <ellipse cx="200" cy="330" rx="60" ry="42" fill="#0c447c"/>
  <rect x="140" y="300" width="120" height="55" rx="8" fill="#0c447c"/>

  <!-- 목 -->
  <rect x="188" y="248" width="24" height="28" rx="8" fill="#FDDBB4"/>

  <!-- 얼굴 -->
  <ellipse cx="200" cy="220" rx="50" ry="54" fill="#FDDBB4"/>

  <!-- 머리카락 -->
  <ellipse cx="200" cy="175" rx="50" ry="20" fill="#1A1A2E"/>
  <rect x="150" y="170" width="100" height="28" fill="#1A1A2E"/>

  <!-- 귀 -->
  <ellipse cx="152" cy="222" rx="9" ry="12" fill="#FDDBB4"/>
  <ellipse cx="248" cy="222" rx="9" ry="12" fill="#FDDBB4"/>

  <!-- 눈썹 -->
  <path d="M177 202 Q186 197 195 202" fill="none" stroke="#1A1A2E" stroke-width="2.5" stroke-linecap="round"/>
  <path d="M205 202 Q214 197 223 202" fill="none" stroke="#1A1A2E" stroke-width="2.5" stroke-linecap="round"/>

  <!-- 눈 -->
  <ellipse cx="186" cy="213" rx="9" ry="10" fill="#1A1A2E"/>
  <ellipse cx="214" cy="213" rx="9" ry="10" fill="#1A1A2E"/>
  <ellipse cx="189" cy="210" rx="3" ry="3" fill="white"/>
  <ellipse cx="217" cy="210" rx="3" ry="3" fill="white"/>

  <!-- 코 -->
  <path d="M198 222 Q200 230 204 228 Q207 226 202 234" fill="none" stroke="#e8a870" stroke-width="1.8" stroke-linecap="round"/>

  <!-- 입 -->
  <path d="M184 244 Q200 256 216 244" fill="none" stroke="#c0784a" stroke-width="2.2" stroke-linecap="round"/>

  <!-- 볼터치 -->
  <ellipse cx="172" cy="234" rx="11" ry="6" fill="#f5a0a0" opacity="0.45"/>
  <ellipse cx="228" cy="234" rx="11" ry="6" fill="#f5a0a0" opacity="0.45"/>

  <!-- 왼팔 -->
  <path d="M144 308 Q124 348 120 374" fill="none" stroke="#0c447c" stroke-width="20" stroke-linecap="round"/>
  <ellipse cx="118" cy="379" rx="13" ry="11" fill="#FDDBB4"/>

  <!-- 오른팔 (경례) -->
  <path d="M256 305 Q276 262 268 214" fill="none" stroke="#0c447c" stroke-width="20" stroke-linecap="round"/>

  <!-- 오른손 -->
  <ellipse cx="266" cy="204" rx="18" ry="20" fill="#FDDBB4" transform="rotate(-18 266 204)"/>

  <!-- 검지 -->
  <rect x="258" y="162" width="10" height="32" rx="5" fill="#FDDBB4" transform="rotate(-14 263 178)"/>
  <!-- 중지 -->
  <rect x="270" y="158" width="10" height="34" rx="5" fill="#FDDBB4" transform="rotate(-4 275 175)"/>

  <!-- 접힌 손가락들 -->
  <ellipse cx="274" cy="192" rx="7" ry="5" fill="#f0b97a" transform="rotate(-28 274 192)"/>
  <ellipse cx="280" cy="200" rx="6" ry="4" fill="#f0b97a" transform="rotate(-8 280 200)"/>
  <ellipse cx="254" cy="208" rx="7" ry="5" fill="#f0b97a" transform="rotate(38 254 208)"/>

  <!-- ThanQ 텍스트 (흰색) -->
  <text x="200" y="375" font-family="'Pretendard', 'Arial Black', sans-serif" font-size="52" font-weight="800" fill="white" text-anchor="middle">ThanQ</text>
</svg>
